<svg xmlns="http://www.w3.org/2000/svg" width="1200" height="630" viewBox="0 0 1200 630">
  <defs>
    <linearGradient id="bg" x1="0" y1="0" x2="1" y2="1">
      <stop offset="0" stop-color="#150f24"/><stop offset="1" stop-color="#271a48"/>
    </linearGradient>
    <linearGradient id="accgrad" x1="0" y1="1" x2="1" y2="0">
      <stop offset="0" stop-color="#b58cff"/><stop offset="1" stop-color="#4f8cff"/>
    </linearGradient>
    <radialGradient id="glowA" cx="0.5" cy="0.5" r="0.5">
      <stop offset="0" stop-color="#b58cff" stop-opacity="0.45"/><stop offset="1" stop-color="#b58cff" stop-opacity="0"/>
    </radialGradient>
    <radialGradient id="glowB" cx="0.5" cy="0.5" r="0.5">
      <stop offset="0" stop-color="#4f8cff" stop-opacity="0.35"/><stop offset="1" stop-color="#4f8cff" stop-opacity="0"/>
    </radialGradient>
  </defs>
  <rect width="1200" height="630" fill="url(#bg)"/>
  <line x1="48" y1="0" x2="48" y2="630" stroke="#b0a4cc" stroke-opacity="0.035" stroke-width="1"/><line x1="96" y1="0" x2="96" y2="630" stroke="#b0a4cc" stroke-opacity="0.035" stroke-width="1"/><line x1="144" y1="0" x2="144" y2="630" stroke="#b0a4cc" stroke-opacity="0.035" stroke-width="1"/><line x1="192" y1="0" x2="192" y2="630" stroke="#b0a4cc" stroke-opacity="0.035" stroke-width="1"/><line x1="240" y1="0" x2="240" y2="630" stroke="#b0a4cc" stroke-opacity="0.035" stroke-width="1"/><line x1="288" y1="0" x2="288" y2="630" stroke="#b0a4cc" stroke-opacity="0.035" stroke-width="1"/><line x1="336" y1="0" x2="336" y2="630" stroke="#b0a4cc" stroke-opacity="0.035" stroke-width="1"/><line x1="384" y1="0" x2="384" y2="630" stroke="#b0a4cc" stroke-opacity="0.035" stroke-width="1"/><line x1="432" y1="0" x2="432" y2="630" stroke="#b0a4cc" stroke-opacity="0.035" stroke-width="1"/><line x1="480" y1="0" x2="480" y2="630" stroke="#b0a4cc" stroke-opacity="0.035" stroke-width="1"/><line x1="528" y1="0" x2="528" y2="630" stroke="#b0a4cc" stroke-opacity="0.035" stroke-width="1"/><line x1="576" y1="0" x2="576" y2="630" stroke="#b0a4cc" stroke-opacity="0.035" stroke-width="1"/><line x1="624" y1="0" x2="624" y2="630" stroke="#b0a4cc" stroke-opacity="0.035" stroke-width="1"/><line x1="672" y1="0" x2="672" y2="630" stroke="#b0a4cc" stroke-opacity="0.035" stroke-width="1"/><line x1="720" y1="0" x2="720" y2="630" stroke="#b0a4cc" stroke-opacity="0.035" stroke-width="1"/><line x1="768" y1="0" x2="768" y2="630" stroke="#b0a4cc" stroke-opacity="0.035" stroke-width="1"/><line x1="816" y1="0" x2="816" y2="630" stroke="#b0a4cc" stroke-opacity="0.035" stroke-width="1"/><line x1="864" y1="0" x2="864" y2="630" stroke="#b0a4cc" stroke-opacity="0.035" stroke-width="1"/><line x1="912" y1="0" x2="912" y2="630" stroke="#b0a4cc" stroke-opacity="0.035" stroke-width="1"/><line x1="960" y1="0" x2="960" y2="630" stroke="#b0a4cc" stroke-opacity="0.035" stroke-width="1"/><line x1="1008" y1="0" x2="1008" y2="630" stroke="#b0a4cc" stroke-opacity="0.035" stroke-width="1"/><line x1="1056" y1="0" x2="1056" y2="630" stroke="#b0a4cc" stroke-opacity="0.035" stroke-width="1"/><line x1="1104" y1="0" x2="1104" y2="630" stroke="#b0a4cc" stroke-opacity="0.035" stroke-width="1"/><line x1="1152" y1="0" x2="1152" y2="630" stroke="#b0a4cc" stroke-opacity="0.035" stroke-width="1"/><line x1="0" y1="48" x2="1200" y2="48" stroke="#b0a4cc" stroke-opacity="0.035" stroke-width="1"/><line x1="0" y1="96" x2="1200" y2="96" stroke="#b0a4cc" stroke-opacity="0.035" stroke-width="1"/><line x1="0" y1="144" x2="1200" y2="144" stroke="#b0a4cc" stroke-opacity="0.035" stroke-width="1"/><line x1="0" y1="192" x2="1200" y2="192" stroke="#b0a4cc" stroke-opacity="0.035" stroke-width="1"/><line x1="0" y1="240" x2="1200" y2="240" stroke="#b0a4cc" stroke-opacity="0.035" stroke-width="1"/><line x1="0" y1="288" x2="1200" y2="288" stroke="#b0a4cc" stroke-opacity="0.035" stroke-width="1"/><line x1="0" y1="336" x2="1200" y2="336" stroke="#b0a4cc" stroke-opacity="0.035" stroke-width="1"/><line x1="0" y1="384" x2="1200" y2="384" stroke="#b0a4cc" stroke-opacity="0.035" stroke-width="1"/><line x1="0" y1="432" x2="1200" y2="432" stroke="#b0a4cc" stroke-opacity="0.035" stroke-width="1"/><line x1="0" y1="480" x2="1200" y2="480" stroke="#b0a4cc" stroke-opacity="0.035" stroke-width="1"/><line x1="0" y1="528" x2="1200" y2="528" stroke="#b0a4cc" stroke-opacity="0.035" stroke-width="1"/><line x1="0" y1="576" x2="1200" y2="576" stroke="#b0a4cc" stroke-opacity="0.035" stroke-width="1"/><line x1="0" y1="624" x2="1200" y2="624" stroke="#b0a4cc" stroke-opacity="0.035" stroke-width="1"/>
  <text x="948" y="486" text-anchor="middle" font-family="'SF Mono', 'Menlo', 'DejaVu Sans Mono', 'Liberation Mono', monospace" font-size="330" font-weight="700" fill="#b58cff" fill-opacity="0.05">{ }</text>
  <circle cx="1040" cy="150" r="420" fill="url(#glowA)"/>
  <circle cx="90" cy="120" r="320" fill="url(#glowB)"/>
  <rect x="726.0" y="222.6" width="23.1" height="147.4" rx="3" fill="url(#accgrad)" opacity="0.76"/><circle cx="737.5" cy="222.6" r="3.5" fill="#f7f4fb" opacity="0.8"/><rect x="765.8" y="189.8" width="23.1" height="180.2" rx="3" fill="url(#accgrad)" opacity="0.57"/><line x1="737.5" y1="222.6" x2="777.3" y2="189.8" stroke="#f7f4fb" stroke-opacity="0.5" stroke-width="2"/><circle cx="777.3" cy="189.8" r="3.5" fill="#f7f4fb" opacity="0.8"/><rect x="805.6" y="105.9" width="23.1" height="264.1" rx="3" fill="url(#accgrad)" opacity="0.87"/><line x1="777.3" y1="189.8" x2="817.1" y2="105.9" stroke="#f7f4fb" stroke-opacity="0.5" stroke-width="2"/><circle cx="817.1" cy="105.9" r="3.5" fill="#f7f4fb" opacity="0.8"/><rect x="845.4" y="242.0" width="23.1" height="128.0" rx="3" fill="url(#accgrad)" opacity="0.94"/><line x1="817.1" y1="105.9" x2="856.9" y2="242.0" stroke="#f7f4fb" stroke-opacity="0.5" stroke-width="2"/><circle cx="856.9" cy="242.0" r="3.5" fill="#f7f4fb" opacity="0.8"/><rect x="885.2" y="249.7" width="23.1" height="120.3" rx="3" fill="url(#accgrad)" opacity="0.72"/><line x1="856.9" y1="242.0" x2="896.7" y2="249.7" stroke="#f7f4fb" stroke-opacity="0.5" stroke-width="2"/><circle cx="896.7" cy="249.7" r="3.5" fill="#f7f4fb" opacity="0.8"/><rect x="925.0" y="250.6" width="23.1" height="119.4" rx="3" fill="url(#accgrad)" opacity="0.69"/><line x1="896.7" y1="249.7" x2="936.5" y2="250.6" stroke="#f7f4fb" stroke-opacity="0.5" stroke-width="2"/><circle cx="936.5" cy="250.6" r="3.5" fill="#f7f4fb" opacity="0.8"/><rect x="964.8" y="220.7" width="23.1" height="149.3" rx="3" fill="url(#accgrad)" opacity="0.90"/><line x1="936.5" y1="250.6" x2="976.3" y2="220.7" stroke="#f7f4fb" stroke-opacity="0.5" stroke-width="2"/><circle cx="976.3" cy="220.7" r="3.5" fill="#f7f4fb" opacity="0.8"/><rect x="1004.6" y="285.0" width="23.1" height="85.0" rx="3" fill="url(#accgrad)" opacity="0.73"/><line x1="976.3" y1="220.7" x2="1016.1" y2="285.0" stroke="#f7f4fb" stroke-opacity="0.5" stroke-width="2"/><circle cx="1016.1" cy="285.0" r="3.5" fill="#f7f4fb" opacity="0.8"/><rect x="1044.4" y="95.5" width="23.1" height="274.5" rx="3" fill="url(#accgrad)" opacity="0.61"/><line x1="1016.1" y1="285.0" x2="1055.9" y2="95.5" stroke="#f7f4fb" stroke-opacity="0.5" stroke-width="2"/><circle cx="1055.9" cy="95.5" r="3.5" fill="#f7f4fb" opacity="0.8"/><rect x="1084.2" y="67.8" width="23.1" height="302.2" rx="3" fill="url(#accgrad)" opacity="0.58"/><line x1="1055.9" y1="95.5" x2="1095.7" y2="67.8" stroke="#f7f4fb" stroke-opacity="0.5" stroke-width="2"/><circle cx="1095.7" cy="67.8" r="3.5" fill="#f7f4fb" opacity="0.8"/>
  <rect x="80" y="74" width="387" height="40" rx="20" fill="#b58cff" fill-opacity="0.12" stroke="#b58cff" stroke-opacity="0.5"/><circle cx="102" cy="94" r="5" fill="#b58cff"/><text x="120" y="101" font-family="'Helvetica Neue', Helvetica, Arial, 'Liberation Sans', sans-serif" font-size="22" font-weight="700" letter-spacing="2.5" fill="#b58cff">SECURITY · SUPPLY CHAIN</text>
  <text x="82.0" y="382.3" font-family="'Helvetica Neue', Helvetica, Arial, 'Liberation Sans', sans-serif" font-size="58" font-weight="800" fill="#000" fill-opacity="0.28" letter-spacing="-1">npm Will Tell You</text><text x="80" y="380.30000000000007" font-family="'Helvetica Neue', Helvetica, Arial, 'Liberation Sans', sans-serif" font-size="58" font-weight="800" letter-spacing="-1"><tspan fill="#f7f4fb">npm</tspan> <tspan fill="#f7f4fb">Will</tspan> <tspan fill="#f7f4fb">Tell</tspan> <tspan fill="#f7f4fb">You</tspan></text><text x="82.0" y="449.0" font-family="'Helvetica Neue', Helvetica, Arial, 'Liberation Sans', sans-serif" font-size="58" font-weight="800" fill="#000" fill-opacity="0.28" letter-spacing="-1">Who Maintains a</text><text x="80" y="447.00000000000006" font-family="'Helvetica Neue', Helvetica, Arial, 'Liberation Sans', sans-serif" font-size="58" font-weight="800" letter-spacing="-1"><tspan fill="#f7f4fb">Who</tspan> <tspan fill="#f7f4fb">Maintains</tspan> <tspan fill="#f7f4fb">a</tspan></text><text x="82.0" y="515.7" font-family="'Helvetica Neue', Helvetica, Arial, 'Liberation Sans', sans-serif" font-size="58" font-weight="800" fill="#000" fill-opacity="0.28" letter-spacing="-1">Package</text><text x="80" y="513.7" font-family="'Helvetica Neue', Helvetica, Arial, 'Liberation Sans', sans-serif" font-size="58" font-weight="800" letter-spacing="-1"><tspan fill="#f7f4fb">Package</tspan></text>
  <rect x="80" y="539.7" width="132" height="5" rx="2.5" fill="url(#accgrad)"/>
  <circle cx="87" cy="576" r="5" fill="#b58cff"/><text x="104" y="584" font-family="'Helvetica Neue', Helvetica, Arial, 'Liberation Sans', sans-serif" font-size="23" font-weight="600" fill="#b0a4cc">keyless · registry.npmjs.org</text>
  <rect x="1104" y="74" width="46" height="46" rx="12" fill="none" stroke="#b58cff" stroke-opacity="0.6" stroke-width="2"/><circle cx="1119" cy="105" r="4" fill="#b58cff"/><circle cx="1135" cy="89" r="4" fill="#4f8cff"/><line x1="1119" y1="105" x2="1135" y2="89" stroke="#b58cff" stroke-opacity="0.7" stroke-width="2"/>
</svg>